<svg width="148" height="30" viewBox="0 0 148 30" fill="none" xmlns="http://www.w3.org/2000/svg">
<path d="M0.24 22.64H2.544L7.856 9.44H5.568L0.24 22.64Z" fill="#F43F5E"/>
<path d="M12.2458 22H14.4218V17.6H16.4698L18.9338 22H21.3978L18.6618 17.216C19.3231 16.9387 19.8458 16.512 20.2298 15.936C20.6244 15.36 20.8218 14.6613 20.8218 13.84C20.8218 13.0293 20.6458 12.3467 20.2938 11.792C19.9418 11.2373 19.4511 10.816 18.8218 10.528C18.2031 10.2293 17.4884 10.08 16.6778 10.08H12.2458V22ZM14.4218 15.68V12H16.7098C17.2964 12 17.7658 12.1653 18.1178 12.496C18.4698 12.8267 18.6458 13.2747 18.6458 13.84C18.6458 14.3947 18.4698 14.8427 18.1178 15.184C17.7658 15.5147 17.2964 15.68 16.7098 15.68H14.4218ZM24.8479 22H27.1999L28.0639 19.44H32.6719L33.5199 22H35.8879L31.7759 10.08H28.9599L24.8479 22ZM28.6879 17.52L30.3679 12.496L32.0479 17.52H28.6879ZM40.2145 22H42.3905V17.6H44.4385L46.9025 22H49.3665L46.6305 17.216C47.2918 16.9387 47.8145 16.512 48.1985 15.936C48.5932 15.36 48.7905 14.6613 48.7905 13.84C48.7905 13.0293 48.6145 12.3467 48.2625 11.792C47.9105 11.2373 47.4198 10.816 46.7905 10.528C46.1718 10.2293 45.4572 10.08 44.6465 10.08H40.2145V22ZM42.3905 15.68V12H44.6785C45.2652 12 45.7345 12.1653 46.0865 12.496C46.4385 12.8267 46.6145 13.2747 46.6145 13.84C46.6145 14.3947 46.4385 14.8427 46.0865 15.184C45.7345 15.5147 45.2652 15.68 44.6785 15.68H42.3905ZM53.7926 22H61.7126V20.08H55.9686V16.976H61.3926V15.056H55.9686V12H61.7126V10.08H53.7926V22ZM66.3083 22H71.3323C72.6656 22 73.7056 21.68 74.4523 21.04C75.2096 20.3893 75.5883 19.4933 75.5883 18.352C75.5883 17.808 75.4816 17.296 75.2683 16.816C75.0549 16.336 74.6816 15.9253 74.1483 15.584C74.4789 15.2853 74.7189 14.9547 74.8683 14.592C75.0283 14.2293 75.1083 13.8453 75.1083 13.44C75.1083 12.3947 74.7723 11.5733 74.1003 10.976C73.4283 10.3787 72.5056 10.08 71.3323 10.08H66.3083V22ZM68.4843 14.704V11.936H71.4443C71.8923 11.936 72.2496 12.0587 72.5163 12.304C72.7829 12.5493 72.9163 12.88 72.9163 13.296C72.9163 13.712 72.7829 14.0533 72.5163 14.32C72.2496 14.576 71.8923 14.704 71.4443 14.704H68.4843ZM68.4843 20.08V16.608H71.5563C72.1216 16.608 72.5696 16.768 72.9003 17.088C73.2416 17.3973 73.4123 17.8187 73.4123 18.352C73.4123 18.8747 73.2416 19.296 72.9003 19.616C72.5696 19.9253 72.1216 20.08 71.5563 20.08H68.4843ZM80.3708 22H87.6508V20.08H82.5468V10.08H80.3708V22ZM97.6178 22.192C98.5031 22.192 99.3244 22.0373 100.082 21.728C100.839 21.4187 101.5 20.9867 102.066 20.432C102.631 19.8773 103.068 19.2267 103.378 18.48C103.698 17.7227 103.858 16.9067 103.858 16.032C103.858 15.1467 103.698 14.3307 103.378 13.584C103.068 12.8373 102.631 12.192 102.066 11.648C101.5 11.0933 100.839 10.6613 100.082 10.352C99.3244 10.0427 98.5031 9.888 97.6178 9.888C96.7324 9.888 95.9111 10.0427 95.1538 10.352C94.3964 10.6613 93.7351 11.0933 93.1698 11.648C92.6151 12.192 92.1778 12.8373 91.8578 13.584C91.5484 14.3307 91.3938 15.1467 91.3938 16.032C91.3938 16.9067 91.5484 17.7227 91.8578 18.48C92.1778 19.2267 92.6204 19.8773 93.1858 20.432C93.7511 20.9867 94.4124 21.4187 95.1698 21.728C95.9271 22.0373 96.7431 22.192 97.6178 22.192ZM97.6178 20.208C96.8498 20.208 96.1564 20.0267 95.5378 19.664C94.9298 19.3013 94.4498 18.8053 94.0978 18.176C93.7458 17.5467 93.5698 16.832 93.5698 16.032C93.5698 15.232 93.7458 14.5227 94.0978 13.904C94.4498 13.2747 94.9298 12.7787 95.5378 12.416C96.1564 12.0533 96.8498 11.872 97.6178 11.872C98.3964 11.872 99.0898 12.0533 99.6978 12.416C100.306 12.7787 100.786 13.2747 101.138 13.904C101.49 14.5227 101.666 15.232 101.666 16.032C101.666 16.832 101.49 17.5467 101.138 18.176C100.786 18.8053 100.306 19.3013 99.6978 19.664C99.0898 20.0267 98.3964 20.208 97.6178 20.208ZM114.393 22.192C115.246 22.192 116.009 22.048 116.681 21.76C117.363 21.472 117.939 21.0933 118.409 20.624C118.878 20.144 119.214 19.6213 119.417 19.056L117.465 18.144C117.23 18.7413 116.846 19.2373 116.313 19.632C115.79 20.016 115.15 20.208 114.393 20.208C113.646 20.208 112.99 20.032 112.425 19.68C111.859 19.328 111.417 18.8427 111.097 18.224C110.777 17.5947 110.617 16.864 110.617 16.032C110.617 15.2 110.777 14.4747 111.097 13.856C111.417 13.2267 111.859 12.7413 112.425 12.4C112.99 12.048 113.646 11.872 114.393 11.872C115.15 11.872 115.79 12.0693 116.313 12.464C116.846 12.848 117.23 13.3387 117.465 13.936L119.417 13.024C119.214 12.4587 118.878 11.9413 118.409 11.472C117.939 10.992 117.363 10.608 116.681 10.32C116.009 10.032 115.246 9.888 114.393 9.888C113.539 9.888 112.75 10.0427 112.025 10.352C111.299 10.6507 110.67 11.0773 110.137 11.632C109.603 12.176 109.187 12.8267 108.889 13.584C108.59 14.3307 108.441 15.1467 108.441 16.032C108.441 16.9173 108.59 17.7387 108.889 18.496C109.187 19.2427 109.603 19.8933 110.137 20.448C110.67 21.0027 111.299 21.4347 112.025 21.744C112.75 22.0427 113.539 22.192 114.393 22.192ZM124.183 22H126.359V18.656L127.959 16.752L131.159 22H133.719L129.447 14.976L133.575 10.08H130.839L126.359 15.376V10.08H124.183V22ZM142.142 22.192C142.964 22.192 143.684 22.0427 144.302 21.744C144.921 21.4453 145.406 21.0347 145.758 20.512C146.11 19.9893 146.286 19.3867 146.286 18.704C146.286 17.1147 145.337 16.016 143.438 15.408L141.246 14.72C140.82 14.5813 140.494 14.3893 140.27 14.144C140.057 13.888 139.95 13.5947 139.95 13.264C139.95 12.8267 140.116 12.4747 140.446 12.208C140.788 11.9307 141.236 11.792 141.79 11.792C142.409 11.792 142.953 11.9573 143.422 12.288C143.892 12.608 144.244 13.0667 144.478 13.664L146.27 12.864C145.95 11.968 145.39 11.248 144.59 10.704C143.801 10.16 142.868 9.888 141.79 9.888C141.012 9.888 140.318 10.0373 139.71 10.336C139.113 10.624 138.644 11.0293 138.302 11.552C137.972 12.0747 137.806 12.6773 137.806 13.36C137.806 14.1387 138.041 14.816 138.51 15.392C138.98 15.9573 139.678 16.3893 140.606 16.688L142.894 17.424C143.31 17.5627 143.62 17.744 143.822 17.968C144.036 18.192 144.142 18.48 144.142 18.832C144.142 19.2693 143.966 19.6213 143.614 19.888C143.273 20.1547 142.82 20.288 142.254 20.288C141.572 20.288 140.958 20.096 140.414 19.712C139.87 19.3173 139.454 18.7787 139.166 18.096L137.358 18.88C137.572 19.5413 137.908 20.1227 138.366 20.624C138.836 21.1147 139.39 21.4987 140.03 21.776C140.681 22.0533 141.385 22.192 142.142 22.192Z" fill="#18181B"/>
</svg>
